<svg xmlns="http://www.w3.org/2000/svg" width="45" height="12" fill="none"><path fill="#fff" d="M0 0h44.985v12H0z"/><path fill="#121212" d="M3.992 2.008 7.985 6 3.992 9.992 0 6zM11.016 10V1.48h1.776l2.532 6.996 2.532-6.996h1.776V10h-1.296V3.76l-2.292 6.228h-1.44L12.312 3.76V10h-1.296Zm11.495.144c-.664 0-1.196-.152-1.596-.456-.392-.304-.588-.732-.588-1.284s.164-.98.492-1.284c.336-.312.852-.536 1.548-.672l2.196-.42c0-.496-.116-.864-.348-1.104-.232-.248-.576-.372-1.032-.372-.408 0-.728.092-.96.276-.232.176-.392.44-.48.792l-1.308-.084c.12-.64.416-1.144.888-1.512.48-.368 1.1-.552 1.86-.552.864 0 1.52.232 1.968.696.456.456.684 1.1.684 1.932v2.484c0 .152.024.26.072.324.056.056.144.084.264.084h.228V10a3.05 3.05 0 0 1-.468.036c-.272 0-.508-.044-.708-.132a.873.873 0 0 1-.432-.432c-.096-.208-.144-.484-.144-.828l.132.06c-.064.28-.204.528-.42.744a2.213 2.213 0 0 1-.804.516c-.32.12-.668.18-1.044.18Zm.204-1.008c.384 0 .712-.072.984-.216.272-.152.484-.36.636-.624a1.77 1.77 0 0 0 .228-.9v-.408l-1.872.36c-.384.072-.656.188-.816.348a.796.796 0 0 0-.228.588c0 .272.092.484.276.636.192.144.456.216.792.216Zm6.62 1.008c-.625 0-1.165-.136-1.62-.408a2.739 2.739 0 0 1-1.045-1.164c-.24-.504-.36-1.092-.36-1.764 0-.672.12-1.256.36-1.752a2.739 2.739 0 0 1 1.044-1.164c.448-.28.976-.42 1.584-.42.576 0 1.084.136 1.524.408.44.264.78.648 1.02 1.152.248.504.372 1.112.372 1.824v.324H27.63c.032.624.196 1.092.492 1.404.304.312.712.468 1.224.468.376 0 .688-.088.936-.264.248-.176.42-.412.516-.708l1.32.084a2.647 2.647 0 0 1-.996 1.44c-.488.36-1.084.54-1.788.54ZM27.63 6.22h3.24c-.04-.568-.204-.988-.492-1.26-.28-.272-.64-.408-1.08-.408-.456 0-.832.144-1.128.432-.288.28-.468.692-.54 1.236ZM34.234 10c-.416 0-.752-.108-1.008-.324-.256-.216-.384-.56-.384-1.032V1.48h1.272v7.044c0 .144.036.252.108.324.08.072.192.108.336.108h.504V10h-.828Zm2.55 0c-.417 0-.753-.108-1.009-.324-.256-.216-.384-.56-.384-1.032V1.48h1.272v7.044c0 .144.036.252.108.324.08.072.192.108.336.108h.504V10h-.828Zm3.82.144c-.624 0-1.164-.136-1.62-.408a2.739 2.739 0 0 1-1.044-1.164c-.24-.504-.36-1.092-.36-1.764 0-.672.12-1.256.36-1.752a2.739 2.739 0 0 1 1.044-1.164c.448-.28.976-.42 1.584-.42.576 0 1.084.136 1.524.408.44.264.78.648 1.02 1.152.248.504.372 1.112.372 1.824v.324H38.9c.032.624.196 1.092.492 1.404.304.312.712.468 1.224.468.376 0 .688-.088.936-.264.248-.176.42-.412.516-.708l1.32.084a2.647 2.647 0 0 1-.996 1.44c-.488.36-1.084.54-1.788.54ZM38.9 6.22h3.24c-.04-.568-.204-.988-.492-1.26-.28-.272-.64-.408-1.08-.408-.456 0-.832.144-1.128.432-.288.28-.468.692-.54 1.236Z"/></svg>