<svg width="88" height="24" viewBox="0 0 88 24" fill="none" xmlns="http://www.w3.org/2000/svg">
  <path d="M12.6863 11.3137C9.68571 8.31312 8 4.24346 8 -1.90735e-06L24 -6.99382e-07L24 16C19.7565 16 15.6869 14.3143 12.6863 11.3137Z" fill="currentColor"/>
  <path d="M11.3137 12.6863C14.3143 15.6869 16 19.7565 16 24L-6.99382e-07 24L1.90735e-06 8C4.24347 8 8.31313 9.68571 11.3137 12.6863Z" fill="currentColor"/>
  <path d="M37.36 17.5V5.868H44.4V7.268H38.2L38.848 6.556V11.188L38.2 10.756H43.984V12.14H38.432L38.848 11.668V16.836L38.2 16.084H44.512V17.5H37.36ZM46.0705 17.5V5.06H47.5585V17.5H46.0705ZM53.2264 17.62C52.4317 17.62 51.733 17.4467 51.1304 17.1C50.533 16.7533 50.069 16.244 49.7384 15.572C49.4077 14.8947 49.2424 14.068 49.2424 13.092C49.2424 12.1533 49.413 11.348 49.7544 10.676C50.0957 10.004 50.565 9.48933 51.1624 9.132C51.7597 8.77467 52.4397 8.596 53.2024 8.596C53.9597 8.596 54.6077 8.75867 55.1464 9.084C55.6904 9.40933 56.109 9.876 56.4024 10.484C56.6957 11.0867 56.8397 11.8093 56.8344 12.652C56.8344 12.8227 56.829 12.964 56.8184 13.076C56.8077 13.188 56.7997 13.3053 56.7944 13.428H50.7304C50.7677 14.388 51.0077 15.116 51.4504 15.612C51.8984 16.1027 52.469 16.348 53.1624 16.348C53.749 16.348 54.2024 16.2253 54.5224 15.98C54.8477 15.7293 55.053 15.4093 55.1384 15.02H56.5944C56.557 15.5747 56.3864 16.0467 56.0824 16.436C55.7837 16.8253 55.389 17.1213 54.8984 17.324C54.4077 17.5213 53.8504 17.62 53.2264 17.62ZM51.5224 12.308H55.3384C55.3277 11.5613 55.1437 10.9747 54.7864 10.548C54.429 10.1213 53.8824 9.908 53.1464 9.908C52.373 9.908 51.7864 10.172 51.3864 10.7C50.9864 11.2227 50.7677 11.9453 50.7304 12.868C50.773 12.6493 50.8584 12.5027 50.9864 12.428C51.1197 12.348 51.2984 12.308 51.5224 12.308ZM60.4651 17.5L57.3131 8.772H59.0091L60.2251 12.732L61.2491 15.988H61.3051L62.3211 12.74L63.5451 8.772H65.2331L62.0811 17.5H60.4651ZM68.6135 17.596C68.0588 17.596 67.5788 17.492 67.1735 17.284C66.7735 17.0707 66.4642 16.7827 66.2455 16.42C66.0322 16.0573 65.9255 15.6467 65.9255 15.188C65.9255 14.7133 66.0188 14.3133 66.2055 13.988C66.3922 13.6573 66.6615 13.388 67.0135 13.18C67.3655 12.9667 67.7922 12.8067 68.2935 12.7C68.6242 12.6253 68.9735 12.5667 69.3415 12.524C69.7148 12.4813 70.0722 12.4467 70.4135 12.42C70.7548 12.3933 71.0455 12.3747 71.2855 12.364V11.876C71.2855 11.1773 71.1388 10.676 70.8455 10.372C70.5522 10.0627 70.0962 9.908 69.4775 9.908C69.0935 9.908 68.7548 9.95867 68.4615 10.06C68.1735 10.1613 67.9495 10.3507 67.7895 10.628C67.6295 10.9 67.5522 11.3 67.5575 11.828H66.1655C66.1015 11.108 66.2028 10.5107 66.4695 10.036C66.7362 9.556 67.1362 9.19867 67.6695 8.964C68.2028 8.724 68.8348 8.604 69.5655 8.604C69.9815 8.604 70.3788 8.65467 70.7575 8.756C71.1362 8.852 71.4722 9.01733 71.7655 9.252C72.0588 9.48133 72.2908 9.796 72.4615 10.196C72.6322 10.596 72.7175 11.0973 72.7175 11.7V17.5H71.2695L71.2855 15.604C71.1522 16.2067 70.8508 16.6893 70.3815 17.052C69.9175 17.4147 69.3282 17.596 68.6135 17.596ZM68.9575 16.42C69.3468 16.42 69.7042 16.348 70.0295 16.204C70.3602 16.06 70.6375 15.876 70.8615 15.652C71.0855 15.428 71.2268 15.1987 71.2855 14.964V13.268C70.9762 13.2893 70.6322 13.3267 70.2535 13.38C69.8748 13.428 69.5415 13.4867 69.2535 13.556C68.6775 13.6893 68.2482 13.868 67.9655 14.092C67.6882 14.316 67.5495 14.6387 67.5495 15.06C67.5495 15.3107 67.6028 15.54 67.7095 15.748C67.8215 15.9507 67.9815 16.1133 68.1895 16.236C68.3975 16.3533 68.6535 16.4147 68.9575 16.42ZM77.2175 17.62C76.5402 17.62 76.0228 17.4467 75.6655 17.1C75.3135 16.748 75.1375 16.2493 75.1375 15.604V10.868C75.1375 10.6973 75.1722 10.54 75.2415 10.396C75.3108 10.2467 75.4122 10.1507 75.5455 10.108L75.1375 9.116V8.844L75.4975 6.236H76.6095V15.356C76.6095 15.6973 76.6895 15.9293 76.8495 16.052C77.0095 16.1693 77.2842 16.228 77.6735 16.228C77.9562 16.228 78.1962 16.228 78.3935 16.228C78.5908 16.2227 78.7962 16.212 79.0095 16.196V17.508C78.7162 17.5613 78.4122 17.5933 78.0975 17.604C77.7882 17.6147 77.4948 17.62 77.2175 17.62ZM73.8655 10.108V8.772H78.9375V10.108H73.8655ZM83.6808 17.62C82.8861 17.62 82.1874 17.4467 81.5848 17.1C80.9874 16.7533 80.5234 16.244 80.1928 15.572C79.8621 14.8947 79.6968 14.068 79.6968 13.092C79.6968 12.1533 79.8674 11.348 80.2088 10.676C80.5501 10.004 81.0194 9.48933 81.6168 9.132C82.2141 8.77467 82.8941 8.596 83.6568 8.596C84.4141 8.596 85.0621 8.75867 85.6008 9.084C86.1448 9.40933 86.5634 9.876 86.8568 10.484C87.1501 11.0867 87.2941 11.8093 87.2888 12.652C87.2888 12.8227 87.2834 12.964 87.2728 13.076C87.2621 13.188 87.2541 13.3053 87.2488 13.428H81.1848C81.2221 14.388 81.4621 15.116 81.9048 15.612C82.3528 16.1027 82.9234 16.348 83.6168 16.348C84.2034 16.348 84.6568 16.2253 84.9768 15.98C85.3021 15.7293 85.5074 15.4093 85.5928 15.02H87.0488C87.0114 15.5747 86.8408 16.0467 86.5368 16.436C86.2381 16.8253 85.8434 17.1213 85.3528 17.324C84.8621 17.5213 84.3048 17.62 83.6808 17.62ZM81.9768 12.308H85.7928C85.7821 11.5613 85.5981 10.9747 85.2408 10.548C84.8834 10.1213 84.3368 9.908 83.6008 9.908C82.8274 9.908 82.2408 10.172 81.8408 10.7C81.4408 11.2227 81.2221 11.9453 81.1848 12.868C81.2274 12.6493 81.3128 12.5027 81.4408 12.428C81.5741 12.348 81.7528 12.308 81.9768 12.308Z" fill="currentColor"/>
</svg>
